<svg class="logo-jobber-powered-by-navy" xmlns="http://www.w3.org/2000/svg" version="1.1" viewBox="0 0 1000 258">
  <g fill="#002a3a" fill-rule="evenodd">
    <path d="M310.65,115.9h-30.52c-2.08,0-3.76,1.69-3.76,3.76v71.15c0,4.69-.97,8.38-2.93,11.06-1.95,2.68-5.17,4.02-9.63,4.02s-7.74-1.53-9.81-4.61c-1.64-2.43-2.7-5.65-3.18-9.66-.23-1.89-1.82-3.33-3.72-3.33h-30.45c-2.2,0-3.92,1.89-3.76,4.09,1.04,14.32,5.44,25.42,13.21,33.28,8.49,8.6,21.06,12.91,37.71,12.91,15.75,0,28.13-4.16,37.12-12.49,8.99-8.32,13.49-20.64,13.49-36.95v-69.47c0-2.08-1.69-3.76-3.76-3.76Z"/>
    <path d="M452.42,129.48c-5.08-5.37-11.34-9.47-18.77-12.32-7.43-2.85-16.01-4.27-25.72-4.27s-18.72,1.48-26.31,4.44c-7.6,2.96-13.97,7.21-19.11,12.74-5.14,5.53-8.99,12.18-11.56,19.94-2.58,7.77-3.86,16.51-3.86,26.23s1.28,18.44,3.86,26.14c2.57,7.71,6.39,14.25,11.48,19.61,5.08,5.36,11.34,9.47,18.77,12.32,7.43,2.85,16.01,4.28,25.73,4.28s18.71-1.48,26.31-4.44c7.59-2.96,13.94-7.18,19.02-12.65,5.08-5.47,8.94-12.15,11.56-20.03,2.62-7.88,3.94-16.67,3.94-26.39s-1.28-18.41-3.85-26.06c-2.58-7.65-6.4-14.16-11.48-19.52ZM407.42,205.9c-13.96,0-20.95-10.06-20.95-30.17s6.98-30.17,20.95-30.17,20.95,10.06,20.95,30.17-6.98,30.17-20.95,30.17Z"/>
    <path d="M589.14,174.86c-2.13-1.39-2.29-4.46-.3-6.05,2.78-2.22,4.94-4.75,6.47-7.57,2.34-4.3,3.51-9.19,3.51-14.66,0-4.13-.67-8.07-2.01-11.82-1.34-3.74-3.59-7.01-6.77-9.8-3.18-2.79-7.45-5-12.8-6.62-5.36-1.62-12.05-2.43-20.08-2.43h-52.11c-2.08,0-3.76,1.69-3.76,3.76v112.13c0,2.08,1.69,3.76,3.76,3.76h50.61c8.7,0,16-.95,21.91-2.85,5.91-1.9,10.71-4.47,14.39-7.71,3.68-3.24,6.3-6.98,7.87-11.23,1.56-4.24,2.34-8.72,2.34-13.41,0-11.34-4.34-19.84-13.03-25.51ZM535.97,146.99c0-2.08,1.69-3.76,3.76-3.76h11.15c4.69,0,7.88.78,9.56,2.35,1.67,1.57,2.51,3.8,2.51,6.7s-.84,5.14-2.51,6.7c-1.68,1.57-4.87,2.35-9.56,2.35h-11.15c-2.08,0-3.76-1.69-3.76-3.76v-10.57ZM563.28,205.4c-2.01,1.9-5.87,2.85-11.56,2.85h-11.99c-2.08,0-3.76-1.69-3.76-3.76v-14.43c0-2.08,1.69-3.76,3.76-3.76h11.99c5.69,0,9.55.95,11.56,2.85,2.01,1.9,3.02,4.64,3.02,8.21s-1.01,6.15-3.02,8.04Z"/>
    <path d="M722.88,174.86c-2.13-1.39-2.29-4.46-.3-6.05,2.78-2.22,4.94-4.75,6.47-7.57,2.34-4.3,3.51-9.19,3.51-14.66,0-4.13-.67-8.07-2.01-11.82-1.34-3.74-3.59-7.01-6.77-9.8-3.18-2.79-7.45-5-12.8-6.62-5.36-1.62-12.05-2.43-20.08-2.43h-52.11c-2.08,0-3.76,1.69-3.76,3.76v112.13c0,2.08,1.69,3.76,3.76,3.76h50.61c8.7,0,16-.95,21.91-2.85,5.91-1.9,10.71-4.47,14.39-7.71,3.68-3.24,6.3-6.98,7.87-11.23,1.56-4.24,2.34-8.72,2.34-13.41,0-11.34-4.34-19.84-13.03-25.51ZM669.71,146.99c0-2.08,1.69-3.76,3.76-3.76h11.15c4.69,0,7.88.78,9.56,2.35,1.67,1.57,2.51,3.8,2.51,6.7s-.84,5.14-2.51,6.7c-1.68,1.57-4.87,2.35-9.56,2.35h-11.15c-2.08,0-3.76-1.69-3.76-3.76v-10.57ZM697.02,205.4c-2.01,1.9-5.87,2.85-11.56,2.85h-11.99c-2.08,0-3.76-1.69-3.76-3.76v-14.43c0-2.08,1.69-3.76,3.76-3.76h11.99c5.69,0,9.55.95,11.56,2.85,2.01,1.9,3.02,4.64,3.02,8.21s-1.01,6.15-3.02,8.04Z"/>
    <path d="M856.95,206.24h-47.05c-2.08,0-3.76-1.69-3.76-3.76v-8.89c0-2.08,1.69-3.76,3.76-3.76h40.74c2.08,0,3.76-1.69,3.76-3.76v-21.8c0-2.08-1.69-3.76-3.76-3.76h-40.74c-2.08,0-3.76-1.69-3.76-3.76v-7.72c0-2.08,1.69-3.76,3.76-3.76h44.09c2.08,0,3.76-1.69,3.76-3.76v-21.8c0-2.08-1.69-3.76-3.76-3.76h-81.46c-2.08,0-3.76,1.69-3.76,3.76v112.13c0,2.08,1.69,3.76,3.76,3.76h82.31c1.94,0,3.56-1.47,3.75-3.4l2.12-21.8c.22-2.21-1.52-4.13-3.75-4.13Z"/>
    <path d="M998.04,230.01l-20.22-37.43c-.87-1.62-.45-3.64,1.01-4.75,4.35-3.29,7.81-7.32,10.39-12.1,3.07-5.7,4.6-12.57,4.6-20.61,0-5.37-.81-10.45-2.43-15.25-1.62-4.8-4.34-8.97-8.14-12.48-3.81-3.52-8.81-6.31-15.03-8.38-6.21-2.07-13.9-3.1-23.08-3.1h-47.6c-2.08,0-3.76,1.69-3.76,3.76v112.13c0,2.08,1.69,3.76,3.76,3.76h28.33c2.08,0,3.76-1.69,3.76-3.76v-30.85c0-2.08,1.69-3.76,3.76-3.76h7.31c1.43,0,2.73.81,3.37,2.09l17.03,34.21c.64,1.28,1.94,2.09,3.37,2.09h30.24c2.85,0,4.67-3.05,3.31-5.55ZM954.38,166.35c-2.38,2.12-6.41,3.19-12.08,3.19h-8.89c-2.08,0-3.76-1.69-3.76-3.76v-17.95c0-2.08,1.69-3.76,3.76-3.76h8.89c5.67,0,9.7,1.07,12.08,3.19,2.39,2.12,3.58,5.31,3.58,9.55s-1.19,7.43-3.58,9.55Z"/>
    <path d="M139.93,95.36c-.89-.89-2.09-1.39-3.35-1.39H60.05C26.88,93.98,0,120.86,0,154.02v76.53c0,1.26.5,2.46,1.39,3.35l22.54,22.54c.89.89,2.09,1.39,3.35,1.39h76.53c33.16,0,60.05-26.88,60.05-60.05v-76.53c0-1.26-.5-2.46-1.39-3.35l-22.54-22.54ZM21.93,154.02v80.25c0,1.41-1.7,2.11-2.7,1.12l-7.2-7.2c-.3-.3-.46-.7-.46-1.12v-73.05c0-26.78,21.71-48.48,48.48-48.48h68.74c.87,0,1.58.71,1.58,1.58v90.66c0,14.67-11.89,26.56-26.56,26.56h-46.11c-1.1,0-1.86-1.1-1.48-2.13l2.68-7.2c.23-.62.82-1.03,1.48-1.03h41.2c10.18,0,18.43-8.25,18.43-18.43v-78.06c0-.87-.71-1.58-1.58-1.58h-58.37c-21.05,0-38.12,17.07-38.12,38.12ZM55.42,200.83v-44.57c0-3.79,3.07-6.87,6.87-6.87h44.57c.87,0,1.58.71,1.58,1.58v44.57c0,3.79-3.07,6.87-6.87,6.87h-44.57c-.87,0-1.58-.71-1.58-1.58ZM152.29,197.78c0,26.78-21.71,48.48-48.48,48.48H35.07c-.87,0-1.58-.71-1.58-1.58v-90.66c0-14.67,11.89-26.56,26.56-26.56h46.11c1.1,0,1.86,1.1,1.48,2.13l-2.68,7.2c-.23.62-.82,1.03-1.48,1.03h-41.2c-10.18,0-18.43,8.25-18.43,18.43v78.06c0,.87.71,1.58,1.58,1.58h58.37c21.05,0,38.12-17.07,38.12-38.12v-80.25c0-1.41,1.7-2.11,2.7-1.12l7.2,7.2c.3.3.46.7.46,1.12v73.05Z"/>
  </g>
  <g fill="#002a3a" fill-rule="evenodd">
    <path d="M425.14,1.23c13.12,0,20.81,8.74,20.81,19.15,0,12.41-9.44,23.34-23.78,23.34h-12.33l-3.23,18.71h-14.86l10.75-61.2h22.65ZM422,30.43c4.8,0,8.92-3.76,8.92-8.83,0-3.85-3.06-7.08-7.96-7.08h-8.21l-2.8,15.91h10.06Z"/>
    <path d="M454.29,35.24c0-17.14,13.29-35.24,34.18-35.24,15.39,0,27.55,12.33,27.55,28.42,0,17.14-13.29,35.23-34.19,35.23-15.39,0-27.54-12.32-27.54-28.41ZM501.16,29.47c0-8.05-5.17-15.48-14.35-15.48-10.22,0-17.66,10.06-17.66,20.2,0,8.05,5.16,15.48,14.34,15.48,10.23,0,17.67-10.06,17.67-20.2Z"/>
    <path d="M593.77,1.23h16.01l-29.38,61.2h-13.03l-4.02-36.03-16.7,36.03h-12.25l-7.78-61.2h14.61l3.85,37.42,17.13-37.42h10.59l3.85,37.42,17.13-37.42Z"/>
    <path d="M661.5,14.61h-28.5l-1.84,10.31h25.18l-2.19,12.68h-25.26l-2.01,11.46h29.46l-2.36,13.38h-44.24l10.75-61.2h43.37l-2.36,13.38Z"/>
    <path d="M707.26,40.05l10.05,22.38h-16.08l-8.65-20.81h-6.74l-3.67,20.81h-14.86l10.75-61.2h22.12c15.21,0,22.47,8.56,22.47,18.54s-6.2,17.23-15.38,20.28ZM690.3,14.26l-2.63,14.86h11.46c4.8,0,8.39-3.5,8.39-8.22,0-3.67-2.79-6.64-7.08-6.64h-10.14Z"/>
    <path d="M780.89,14.61h-28.5l-1.84,10.31h25.18l-2.19,12.68h-25.26l-2.01,11.46h29.46l-2.36,13.38h-44.24l10.75-61.2h43.37l-2.36,13.38Z"/>
    <path d="M786.69,62.43l10.75-61.2h18.97c17.23,0,28.24,13.03,28.24,27.63,0,17.14-14.16,33.57-33.49,33.57h-24.48ZM804.01,48.7h7.96c9.61,0,17.74-8.74,17.74-18.62,0-8.12-5.68-15.13-14.6-15.13h-5.16l-5.95,33.75Z"/>
    <path d="M931.88,43.54c0,10.75-9.09,18.89-20.99,18.89h-31.74l10.75-61.2h25.19c12.5,0,18.89,7.26,18.89,15.13,0,6.46-3.76,12.5-9.88,14.51,3.23,1.66,7.78,5.68,7.78,12.68ZM908.71,50.62c4.2,0,8.31-3.06,8.31-7.86,0-3.51-2.89-6.39-7.43-6.39h-11.02l-2.45,14.25h12.59ZM911.68,25.27c3.67,0,7.17-2.63,7.17-6.65,0-2.97-2.28-5.6-6.47-5.6h-9.71l-2.09,12.25h11.1Z"/>
    <path d="M981.58,1.23h16.79l-27.02,39.17-3.85,22.03h-14.86l3.85-22.03-13.2-39.17h15.48l7.26,23.78,15.57-23.78Z"/>
  </g>
</svg>
